<svg xmlns="http://www.w3.org/2000/svg" viewBox="0 0 52.87 41.86"><defs><style>.cls-1{fill:#d9c179;}.cls-2{fill:#171717;}.cls-3{fill:#d3af7f;}</style></defs><g id="Camada_2" data-name="Camada 2"><g id="Camada_1-2" data-name="Camada 1"><path class="cls-1" d="M52.47,15.54Q49.8,14,47.14,12.47a2.46,2.46,0,0,1-.34-.22C40.51,9,35,4.14,28.11,1.67a30.9,30.9,0,0,0-7-1.67A38.58,38.58,0,0,0,10.2,1.72a24.19,24.19,0,0,0-3,1.45l-.48.33-.94.64A10.29,10.29,0,0,0,5,4.86,26.51,26.51,0,0,0,0,20.39,26.84,26.84,0,0,0,1.13,28.1v0l.05.08A31.46,31.46,0,0,0,7,35.61c5.26,3.25,10.8,5.71,17.41,6.16a58.39,58.39,0,0,0,15.43-1.22,38.72,38.72,0,0,0,7.32-3.64,26.49,26.49,0,0,0,5.73-16.5A26.53,26.53,0,0,0,52.47,15.54Zm-26,24.2a41.7,41.7,0,0,1-4-18.28,41.37,41.37,0,0,1,4-18.21,44,44,0,0,1,1.88,4.81,3.54,3.54,0,0,0,1.57,6.7,41.62,41.62,0,0,1,.48,6.7A42.86,42.86,0,0,1,26.46,39.74Z"/><path class="cls-2" d="M29.91,14.76a3.54,3.54,0,0,1-1.57-6.7A42.87,42.87,0,0,1,29.91,14.76Z"/><path class="cls-3" d="M33.48,11.21A3.54,3.54,0,0,1,30,14.76h0a3.54,3.54,0,0,1-1.57-6.7A3.37,3.37,0,0,1,30,7.66,3.54,3.54,0,0,1,33.48,11.21Z"/></g></g></svg>