<svg id="Camada_1" data-name="Camada 1" xmlns="http://www.w3.org/2000/svg" xmlns:xlink="http://www.w3.org/1999/xlink" viewBox="0 0 445 80"><defs><style>.cls-1{fill:none;}.cls-2{clip-path:url(#clip-path);}.cls-3{fill:#d9c179;}.cls-4{fill:#171717;}.cls-5{fill:#d3af7f;}</style><clipPath id="clip-path"><rect class="cls-1" width="445" height="80"/></clipPath></defs><g class="cls-2"><path class="cls-3" d="M18.13.94H0V48.07H17.84C34.74,48.07,44.6,38,44.6,24.36v-.1C44.6,10.64,34.88.94,18.13.94ZM31.25,24.59c0,7.61-5.16,11.92-12.94,11.92H13v-24h5.3c7.78,0,12.94,4.37,12.94,11.92Z"/><path class="cls-3" d="M83.33,31.66C89.14,29.17,93,24.38,93,17.18V17c0-4.64-1.4-8.28-4.15-11C85.68,2.83,80.72,1,73.54,1H51.34V48.07h13V33.82h5.7L79.48,48.1h15ZM79.92,18c0,3.43-2.55,5.59-7,5.59H64.35V12.26h8.52c4.35,0,7,1.89,7,5.59Z"/><path class="cls-3" d="M127.57.6H115L95,48.07h13.71l3.35-8.42H130.2l3.4,8.42h14ZM115.89,29.51l5.3-13.41,5.24,13.41Z"/><path class="cls-3" d="M182.77,31.39c-2.82,3.43-5.7,5.73-10.6,5.73-6.57,0-11.2-5.52-11.2-12.6v-.13c0-6.87,4.63-12.47,11.2-12.47,4.49,0,7.58,2.19,10.27,5.53l9.76-7.62C188,4,181.86,0,172.27,0c-14.22,0-24.76,10.78-24.76,24.52v.14A23.89,23.89,0,0,0,171.73,49c10.4,0,16.37-4.51,20.79-10.64Z"/><path class="cls-3" d="M284,.94V25.87L264.73.94H252.55V48.07h12.9V22.23l20,25.84h11.4V.94Z"/><path class="cls-3" d="M334,.6H321.46l-20,47.47h13.68l3.35-8.42h18.13l3.41,8.42H354ZM322.33,29.51l5.31-13.41,5.26,13.41Z"/><path class="cls-3" d="M349.93.94V12.38H364V48.07h13V12.38h14.09V.94Z"/><path class="cls-3" d="M120.58,70.29c3.4-.47,5.91-2.4,5.91-5.83V64.4c0-3.39-2.86-5.76-7.21-5.76h-8.49V78.91h1.5V70.55h6.61l6.43,8.4h1.91Zm-8.29-1.09V60.06h6.9c3.63,0,5.8,1.72,5.8,4.44v0c0,2.91-2.5,4.64-5.88,4.64Z"/><path class="cls-3" d="M121.85,70.77c3.38-.83,5.36-3.12,5.36-6.33,0-3.81-3.25-6.47-7.91-6.47h-9.2V79.66H113V71.25h5.56L125,79.66h3.67Zm-10.23,7.48h-.1V59.37h.1ZM125.81,64.5a4.61,4.61,0,0,1-.3,1.8,4.71,4.71,0,0,1-1,1.53,4.87,4.87,0,0,0,1.2-3.28v0a4.57,4.57,0,0,0-2-3.93,4.61,4.61,0,0,1,2.07,3.93ZM113,60.77h6.19c3.24,0,5.08,1.36,5.08,3.73v0c0,2.4-2,3.93-5.19,3.93H113Zm6.38,9.11,6.43,8.37h-.13l-6.4-8.32Z"/><path class="cls-3" d="M139,58.67h-7.33V79h1.51V71.38h5.45c4.21,0,7.88-2.18,7.88-6.46v0C146.51,61,143.45,58.67,139,58.67ZM133.2,70V60.06h5.7c3.63,0,6.12,1.69,6.12,4.9V65c0,3-2.53,5-6.28,5Z"/><path class="cls-3" d="M139,58h-8V79.66h2.9V72.11h4.76c5.12,0,8.57-2.91,8.57-7.22S144,58,139,58Zm-6.53,20.28h-.1V59.37h.1Zm1.39-17.48h5c1.63,0,5.41.4,5.41,4.19V65c0,2.6-2.17,4.28-5.58,4.28h-4.85Zm9.74,8.51a5,5,0,0,0,1.57-1.88,5.19,5.19,0,0,0,.54-2.38V65c0-2.92-1.9-4.94-5.08-5.46,3.23.48,5.16,2.46,5.16,5.43a5.1,5.1,0,0,1-2.19,4.35Z"/><path class="cls-3" d="M160,68.47v1.38h6.75v5.83a10.38,10.38,0,0,1-6.43,2.26c-5.4,0-8.66-3.91-8.66-9.16v-.06c0-4.89,3.43-9.06,8.34-9.06a9,9,0,0,1,6.49,2.44l1-1.13a10.58,10.58,0,0,0-7.39-2.67c-6,0-10,5-10,10.48v.06c0,5.71,3.78,10.43,10.16,10.43a12.06,12.06,0,0,0,7.92-3V68.47Z"/><path class="cls-3" d="M159.26,67.74v2.79H166v4.79a9.68,9.68,0,0,1-5.73,2c-4.76,0-8-3.4-8-8.51,0-4.69,3.35-8.36,7.64-8.36a8.3,8.3,0,0,1,6,2.26l.53.46,1.92-2.18-.56-.46A11.22,11.22,0,0,0,160,57.65c-6.68,0-10.68,5.69-10.68,11.25,0,6.55,4.47,11.13,10.88,11.13a12.8,12.8,0,0,0,8.39-3.21l.24-.22V67.74ZM167.41,76V69.14l.05,6.8ZM154.67,60.79A10.82,10.82,0,0,0,151,68.22a10.72,10.72,0,0,0,2.67,7.87,9.85,9.85,0,0,1-2.85-7.29,10.18,10.18,0,0,1,3.9-8Zm11.76.29-.05.06a9.58,9.58,0,0,0-3.29-1.75A10,10,0,0,1,166.43,61.08Z"/><path class="cls-3" d="M199.89,58.67l-8.1,12-8.11-12h-1.41V79h1.45V61.34l8,11.65h.11l8-11.65V79h1.5V58.67Z"/><path class="cls-3" d="M199.52,58l-7.73,11.45L184.05,58h-2.48V79.66h2.84v-16l6.71,9.81.33.31h.73l6.92-10.12v16H202V58Zm-2.35,6,3.09-4.58h.05Zm3.43,14.3h-.1V59.37h.1ZM183,59.37l0,18.88h0Z"/><path class="cls-3" d="M216.45,58.53H215l-9.43,20.39h1.56l2.57-5.67h11.94l2.57,5.67h1.64Zm-6.08,13.38,5.33-11.73L221,71.91Z"/><path class="cls-3" d="M216.89,57.83h-2.33L204.51,79.68h3.1L210.18,74h11l2.57,5.68H227Zm-5.44,13.36,4.25-9.28,4.23,9.34Zm6.67-7.38,6.64,14.41h-.1Z"/><path class="cls-3" d="M245.49,58.67V76.31L231.56,58.67h-1.42V79h1.46v-18l14.22,18h1.12V58.67Z"/><path class="cls-3" d="M244.79,58V74.3L231.9,58h-2.45V79.66h2.84V63l13.18,16.71h2.18V58Zm1.41,20.28V59.37l0,18.88ZM230.85,59.37l0,18.88h0Z"/><path class="cls-3" d="M262.08,58.53h-1.45L251.2,78.92h1.57l2.56-5.67h11.91l2.57,5.67h1.65ZM256,71.91l5.34-11.73,5.31,11.73Z"/><path class="cls-3" d="M262.55,57.83h-2.34l-10,21.85h3.1L255.83,74h11l2.57,5.68h3.19Zm-10.2,20.39,1-2.18-1,2.18Zm4.75-7,4.23-9.28,4.22,9.34Zm6.67-7.38,6.64,14.41h-.1Z"/><path class="cls-3" d="M283.62,68.47v1.38h6.75v5.83A10.34,10.34,0,0,1,283.94,78c-5.4,0-8.65-3.91-8.65-9.16v-.06c0-4.89,3.43-9.07,8.33-9.07a9,9,0,0,1,6.49,2.42l1-1.13a10.55,10.55,0,0,0-7.38-2.67c-6,0-10,5-10,10.48v.06c0,5.71,3.77,10.43,10.15,10.43a12.14,12.14,0,0,0,7.94-3V68.47Z"/><path class="cls-3" d="M282.92,67.74v2.79h6.75v4.79a9.66,9.66,0,0,1-5.73,2c-4.76,0-8-3.4-8-8.51,0-4.69,3.36-8.36,7.64-8.36a8.25,8.25,0,0,1,6,2.26l.53.46,1.92-2.18-.51-.48a11.18,11.18,0,0,0-7.83-2.83c-6.69,0-10.68,5.69-10.68,11.25,0,6.55,4.46,11.13,10.88,11.13a12.83,12.83,0,0,0,8.36-3.22l.23-.22V67.74ZM291.07,76V69.14l0,6.8Zm-16.65-7.16a10.13,10.13,0,0,1,3.89-8,10.71,10.71,0,0,0-2.66,3.42,10.83,10.83,0,0,0-1.07,4.21,10.65,10.65,0,0,0,.68,4.29,10.9,10.9,0,0,0,2.32,3.66,9.81,9.81,0,0,1-3.16-7.58Zm15.69-7.74-.05.06a9.56,9.56,0,0,0-3.29-1.74A10,10,0,0,1,290.11,61.08Z"/><path class="cls-3" d="M298.76,77.57V69.42h11.56V68H298.76v-8h12.86V58.67H297.25V79h14.51V77.57Z"/><path class="cls-3" d="M299.46,76.86V70.12H311V67.33H299.46V60.77h12.86V58H296.56V79.66h15.91v-2.8ZM298,59.38h.13V78.26H298Z"/><path class="cls-3" d="M326.37,70.29c3.4-.47,5.92-2.4,5.92-5.83V64.4c0-3.39-2.86-5.76-7.21-5.76h-8.49V78.91h1.51V70.55h6.6l6.43,8.4H333Zm-8.26-1.09V60.06H325c3.67,0,5.8,1.72,5.8,4.44v0c0,2.91-2.51,4.64-5.88,4.64Z"/><path class="cls-3" d="M327.64,70.77c3.38-.83,5.36-3.12,5.36-6.33,0-3.81-3.25-6.47-7.91-6.47h-9.18V79.66h2.9V71.25h5.56l6.43,8.41h3.68Zm-10.23,7.48h-.1V59.37h.1ZM331.6,64.5a4.56,4.56,0,0,1-.3,1.79,4.37,4.37,0,0,1-1,1.52,4.85,4.85,0,0,0,1.18-3.26v0a4.59,4.59,0,0,0-1.91-3.88,4.47,4.47,0,0,1,1.49,1.68A4.57,4.57,0,0,1,331.6,64.5Zm-12.79-3.73H325c3.24,0,5.08,1.36,5.08,3.73v0c0,2.4-2,3.93-5.19,3.93h-6.1Zm6.38,9.11,6.43,8.37h-.13l-6.4-8.32Z"/><path class="cls-3" d="M101.9,67.86H0v2.82H101.9Z"/><path class="cls-3" d="M443.83,67.86H341.93v2.82h101.9Z"/><path class="cls-4" d="M247.09,25.17a26.49,26.49,0,0,1-5.73,16.51A40,40,0,0,1,234,45.32a58.36,58.36,0,0,1-15.43,1.22c-6.6-.45-12.15-2.92-17.4-6.16A31.1,31.1,0,0,1,195.4,33l-.05-.08v0a27,27,0,0,1-1.13-7.72,26.57,26.57,0,0,1,5-15.52A8.86,8.86,0,0,1,200,8.9l.93-.63.48-.33a26.51,26.51,0,0,1,3-1.46A39.37,39.37,0,0,1,215.3,4.76a32,32,0,0,1,7,1.67C229.19,8.9,234.74,13.78,241,17a2.39,2.39,0,0,0,.34.21c1.77,1,3.55,2.06,5.33,3.08A26.35,26.35,0,0,1,247.09,25.17Z"/><path class="cls-3" d="M247.09,25.17a26.49,26.49,0,0,1-4.78,15.23,6.9,6.9,0,0,1-2.11,2l-.21.12a29.31,29.31,0,0,1-11.09,3.68,52.85,52.85,0,0,1-10.29.37,33.47,33.47,0,0,1-12.38-3.4,24.84,24.84,0,0,1-10.8-10.07l-.05-.09,0-.08v0a26.86,26.86,0,0,1-1.13-7.72,26.51,26.51,0,0,1,4.7-15.12,5.41,5.41,0,0,1,1-1.1l.94-.63.48-.33a23.94,23.94,0,0,1,2.7-1.3,6.25,6.25,0,0,1,.73-.24,39.07,39.07,0,0,1,9.89-1.6,7.14,7.14,0,0,1,1.13.06,32.19,32.19,0,0,1,6.47,1.59C229.14,9,234.68,13.85,241,17.09l.34.22q2.66,1.55,5.33,3.07A26.6,26.6,0,0,1,247.09,25.17Z"/><path class="cls-4" d="M224.61,26.22a42.91,42.91,0,0,1-3.93,18.29,41.74,41.74,0,0,1-4-18.29,41.37,41.37,0,0,1,4-18.21A42.52,42.52,0,0,1,224.61,26.22Z"/><path class="cls-5" d="M224.17,19.52A3.55,3.55,0,1,0,220.64,16,3.54,3.54,0,0,0,224.17,19.52Z"/><path class="cls-4" d="M392.09,25.17a26.49,26.49,0,0,0,5.73,16.51,40,40,0,0,0,7.32,3.64,58.39,58.39,0,0,0,15.43,1.22c6.61-.45,12.14-2.92,17.41-6.16a31.31,31.31,0,0,0,5.8-7.4l.05-.08v0A26.71,26.71,0,0,0,440,9.63a8.86,8.86,0,0,0-.77-.73l-.93-.63-.49-.33a25.59,25.59,0,0,0-3-1.46,39.37,39.37,0,0,0-10.88-1.72,32.22,32.22,0,0,0-7,1.67C410,8.9,404.45,13.78,398.16,17a1.85,1.85,0,0,1-.33.21l-5.3,3.17A25.43,25.43,0,0,0,392.09,25.17Z"/><path class="cls-3" d="M392.09,25.17a26.49,26.49,0,0,0,5.73,16.51,40,40,0,0,0,7.32,3.64,58.39,58.39,0,0,0,15.43,1.22c6.61-.45,12.14-2.92,17.41-6.16a31.31,31.31,0,0,0,5.8-7.4l.05-.08v0A26.71,26.71,0,0,0,440,9.63a8.86,8.86,0,0,0-.77-.73l-.93-.63-.49-.33a25.59,25.59,0,0,0-3-1.46,39.37,39.37,0,0,0-10.88-1.72,32.22,32.22,0,0,0-7,1.67C410,8.9,404.45,13.78,398.16,17a1.85,1.85,0,0,1-.33.21l-5.3,3.17A25.43,25.43,0,0,0,392.09,25.17Z"/><path class="cls-4" d="M414.57,26.22a43,43,0,0,0,3.91,18.31,41.71,41.71,0,0,0,4-18.31,41.25,41.25,0,0,0-4-18.21A42.54,42.54,0,0,0,414.57,26.22Z"/><path class="cls-5" d="M422.52,19.52A3.55,3.55,0,1,0,419,16,3.54,3.54,0,0,0,422.52,19.52Z"/></g></svg>