<svg width="445" height="80" viewBox="0 0 445 80" fill="none" xmlns="http://www.w3.org/2000/svg">
<g clip-path="url(#clip0_331_2)">
<path d="M18.1319 0.939636H0V48.0743H17.8418C34.7407 48.0743 44.6044 37.9641 44.6044 24.3576V24.2557C44.6044 10.6419 34.8785 0.939636 18.1319 0.939636ZM31.2521 24.5907C31.2521 32.2025 26.0882 36.5146 18.306 36.5146H13.0114V12.5285H18.306C26.0882 12.5285 31.2521 16.8988 31.2521 24.4523V24.5907Z" fill="#D9C179"/>
<path d="M83.3342 31.6635C89.1364 29.1724 92.9949 24.3795 92.9949 17.1756V17.0445C92.9949 12.3973 91.5878 8.75535 88.839 6.06028C85.6841 2.82619 80.7232 0.961487 73.543 0.961487H51.3423V48.0743H64.3537V33.8195H70.0544L79.483 48.1034H94.5107L83.3342 31.6635ZM79.9181 17.9914C79.9181 21.4222 77.3652 23.5783 72.941 23.5783H64.3537V12.2589H72.8685C77.2201 12.2589 79.9181 14.1455 79.9181 17.853V17.9914Z" fill="#D9C179"/>
<path d="M127.569 0.604584H115.021L95.0111 48.0743H108.719L112.07 39.654H130.201L133.603 48.0743H147.557L127.569 0.604584ZM115.892 29.5074L121.194 16.0976L126.43 29.5074H115.892Z" fill="#D9C179"/>
<path d="M182.769 31.394C179.948 34.8247 177.069 37.1192 172.173 37.1192C165.595 37.1192 160.968 31.5979 160.968 24.5179V24.3868C160.968 17.518 165.595 11.9239 172.173 11.9239C176.663 11.9239 179.752 14.1091 182.436 17.4451L192.198 9.83338C188.028 4.04261 181.863 0 172.267 0C158.052 0 147.514 10.7803 147.514 24.5179V24.6563C147.514 38.7362 158.313 49.0431 171.731 49.0431C182.131 49.0431 188.1 44.5343 192.524 38.4012L182.769 31.394Z" fill="#D9C179"/>
<path d="M284.003 0.939636V25.8654L264.725 0.939636H252.548V48.0743H265.451V22.2307L285.483 48.0743H296.884V0.939636H284.003Z" fill="#D9C179"/>
<path d="M334.011 0.604584H321.464L301.475 48.0743H315.161L318.512 39.654H336.644L340.045 48.0743H354L334.011 0.604584ZM322.334 29.5074L327.636 16.0976L332.901 29.5074H322.334Z" fill="#D9C179"/>
<path d="M349.931 0.939636V12.3828H364.023V48.0743H377.034V12.3828H391.119V0.939636H349.931Z" fill="#D9C179"/>
<path d="M120.577 70.2905C123.979 69.8243 126.488 67.8867 126.488 64.4633V64.405C126.488 61.0107 123.63 58.6361 119.279 58.6361H110.793V78.9147H112.294V70.5454H118.902L125.335 78.9511H127.235L120.577 70.2905ZM112.294 69.1979V60.0637H119.192C122.818 60.0637 124.994 61.7755 124.994 64.4997V64.5507C124.994 67.4643 122.485 69.1906 119.112 69.1906L112.294 69.1979Z" fill="#D9C179"/>
<path d="M121.846 70.7712C125.226 69.9408 127.206 67.6537 127.206 64.4414C127.206 60.6319 123.957 57.9732 119.301 57.9732H110.097V79.6577H112.998V71.2519H118.561L124.994 79.6577H128.664L121.846 70.7712ZM111.62 78.2519H111.518V59.3718H111.62V78.2519ZM125.814 64.4997C125.835 65.1149 125.731 65.7279 125.506 66.3007C125.281 66.8734 124.942 67.3935 124.508 67.8285C125.301 66.9243 125.731 65.7556 125.712 64.5507V64.4997C125.736 63.7293 125.566 62.9653 125.219 62.278C124.872 61.5906 124.358 61.002 123.725 60.5663C124.373 60.9927 124.902 61.5773 125.264 62.2652C125.625 62.9531 125.807 63.722 125.792 64.4997H125.814ZM112.998 60.7703H119.192C122.434 60.7703 124.269 62.1251 124.269 64.4997V64.5507C124.269 66.9471 122.231 68.484 119.083 68.484H112.998V60.7703ZM119.38 69.8826L125.814 78.2519H125.676L119.279 69.9263L119.38 69.8826Z" fill="#D9C179"/>
<path d="M138.999 58.6725H131.674V78.9511H133.175V71.383H138.629C142.836 71.383 146.506 69.1978 146.506 64.9221V64.8712C146.506 60.9669 143.445 58.6725 138.999 58.6725ZM133.197 69.9991V60.0637H138.905C142.531 60.0637 145.019 61.7463 145.019 64.9586V65.0168C145.019 68.0324 142.488 69.9991 138.738 69.9991H133.197Z" fill="#D9C179"/>
<path d="M138.999 57.9732H130.978V79.6577H133.879V72.1115H138.636C143.764 72.1115 147.209 69.1979 147.209 64.893C147.231 60.6829 143.982 57.9732 138.999 57.9732ZM132.472 78.2519H132.37V59.3718H132.472V78.2519ZM133.864 60.7703H138.876C140.508 60.7703 144.294 61.1709 144.294 64.9586V65.0169C144.294 67.6172 142.118 69.2998 138.709 69.2998H133.864V60.7703ZM143.605 69.278C144.269 68.7886 144.807 68.1461 145.173 67.4046C145.539 66.6632 145.722 65.8443 145.708 65.0169V64.9586C145.708 62.045 143.808 60.02 140.631 59.4956C143.858 59.9836 145.795 61.9576 145.795 64.9294C145.82 65.7803 145.633 66.624 145.251 67.3835C144.868 68.1431 144.302 68.7944 143.605 69.278Z" fill="#D9C179"/>
<path d="M159.967 68.4694V69.8534H166.719V75.6806C164.888 77.138 162.622 77.9335 160.286 77.9386C154.89 77.9386 151.626 74.0271 151.626 68.7827V68.7244C151.626 63.8295 155.064 59.6558 159.967 59.6558C162.367 59.5736 164.701 60.4512 166.458 62.096L167.437 60.9669C165.407 59.1609 162.764 58.2066 160.054 58.301C154.027 58.301 150.074 63.3124 150.074 68.7827V68.8409C150.074 74.5516 153.853 79.2716 160.228 79.2716C163.149 79.2495 165.964 78.1682 168.155 76.2269V68.4694H159.967Z" fill="#D9C179"/>
<path d="M159.263 67.7411V70.5308H166.016V75.3237C164.36 76.5675 162.353 77.2488 160.286 77.2685C155.528 77.2685 152.308 73.8742 152.308 68.7608C152.308 64.0699 155.659 60.3988 159.945 60.3988C161.049 60.3554 162.15 60.5326 163.184 60.9202C164.219 61.3079 165.167 61.8982 165.972 62.6568L166.502 63.123L168.416 60.9378L167.858 60.4789C165.706 58.5656 162.905 57.554 160.032 57.6528C153.345 57.6528 149.349 63.3415 149.349 68.8992C149.349 75.4548 153.816 80.0292 160.228 80.0292C163.319 80.0112 166.3 78.8702 168.619 76.8169L168.859 76.5984V67.7411H159.263ZM167.415 75.9793V69.1396L167.459 75.9355L167.415 75.9793ZM154.672 60.7921C153.591 61.7191 152.705 62.8534 152.065 64.1285C151.426 65.4037 151.046 66.7942 150.948 68.2185C150.85 69.6429 151.036 71.0726 151.495 72.4239C151.954 73.7752 152.676 75.0211 153.621 76.0885C152.674 75.1353 151.933 73.9968 151.442 72.7438C150.952 71.4908 150.723 70.15 150.77 68.8045C150.769 67.2585 151.12 65.7327 151.796 64.3439C152.473 62.9551 153.456 61.7402 154.672 60.7921ZM166.429 61.0835L166.378 61.1418C165.406 60.3472 164.287 59.7532 163.085 59.3936C164.296 59.7409 165.43 60.3142 166.429 61.0835Z" fill="#D9C179"/>
<path d="M199.893 58.6725L191.785 70.6546L183.683 58.6725H182.269V78.9511H183.72V61.3384L191.698 72.9928H191.814L199.792 61.3384V78.9511H201.293V58.6725H199.893Z" fill="#D9C179"/>
<path d="M199.523 57.9732L191.785 69.4164L184.053 57.9732H181.573V79.6577H184.409V63.6329L191.125 73.4444L191.451 73.7503H192.176L199.103 63.6329V79.6577H202.004V57.9732H199.523ZM197.173 63.9461L200.263 59.3718H200.307L197.173 63.9461ZM200.604 78.2519H200.502V59.3718H200.604V78.2519ZM182.965 59.3718L183.009 78.2519H182.965V59.3718Z" fill="#D9C179"/>
<path d="M216.451 58.5268H215.001L205.572 78.922H207.131L209.699 73.2478H221.644L224.212 78.922H225.851L216.451 58.5268ZM210.366 71.9148L215.704 60.1803L221.006 71.9148H210.366Z" fill="#D9C179"/>
<path d="M216.894 57.8275H214.558L204.513 79.6795H207.61L210.178 73.998H221.209L223.776 79.6795H226.96L216.894 57.8275ZM211.454 71.1864L215.697 61.9139L219.925 71.2519L211.454 71.1864ZM218.119 63.8077L224.763 78.2227H224.661L218.119 63.8077Z" fill="#D9C179"/>
<path d="M245.491 58.6725V76.3143L231.559 58.6725H230.144V78.9511H231.595V60.9305L245.818 78.9511H246.942V58.6725H245.491Z" fill="#D9C179"/>
<path d="M244.795 57.9732V74.2966L231.9 57.9732H229.448V79.6577H232.291V62.9482L245.469 79.6577H247.645V57.9732H244.795ZM246.195 78.2519V59.3718L246.238 78.2519H246.195ZM230.848 59.3718L230.891 78.2519H230.848V59.3718Z" fill="#D9C179"/>
<path d="M262.078 58.5268H260.628L251.199 78.922H252.766L255.333 73.2478H267.242L269.81 78.922H271.456L262.078 58.5268ZM256.022 71.9148L261.36 60.1803L266.669 71.9148H256.022Z" fill="#D9C179"/>
<path d="M262.55 57.8275H260.207L250.162 79.6795H253.259L255.826 73.998H266.843L269.411 79.6795H272.595L262.55 57.8275ZM252.345 78.2227L253.339 76.0375L252.367 78.2227H252.345ZM257.103 71.1864L261.331 61.9139L265.552 71.2519L257.103 71.1864ZM263.768 63.8077L270.412 78.2227H270.31L263.768 63.8077Z" fill="#D9C179"/>
<path d="M283.619 68.4695V69.8534H290.371V75.6806C288.548 77.1589 286.281 77.9752 283.938 77.9969C278.542 77.9969 275.286 74.0854 275.286 68.8409V68.7827C275.286 63.8878 278.716 59.7141 283.619 59.7141C286.015 59.6241 288.349 60.491 290.11 62.1251L291.089 60.9961C289.059 59.1901 286.416 58.2358 283.706 58.3301C277.679 58.3301 273.726 63.3415 273.726 68.8118V68.8701C273.726 74.5807 277.498 79.3007 283.88 79.3007C286.803 79.2771 289.62 78.1962 291.815 76.256V68.4695H283.619Z" fill="#D9C179"/>
<path d="M282.923 67.7411V70.5308H289.668V75.3237C288.012 76.5666 286.005 77.2478 283.938 77.2685C279.18 77.2685 275.96 73.8742 275.96 68.7608C275.96 64.0699 279.318 60.3988 283.597 60.3988C284.701 60.3553 285.802 60.5326 286.836 60.9202C287.871 61.3079 288.819 61.8982 289.624 62.6568L290.154 63.123L292.068 60.9378L291.561 60.4571C289.406 58.5432 286.603 57.5318 283.728 57.6309C277.041 57.6309 273.052 63.3197 273.052 68.8774C273.052 75.4329 277.512 80.0073 283.931 80.0073C287.01 79.9753 289.976 78.8327 292.286 76.7878L292.518 76.5693V67.7411H282.923ZM291.068 75.9792V69.1396L291.111 75.9355L291.068 75.9792ZM274.423 68.8191C274.419 67.2743 274.768 65.7492 275.442 64.3605C276.116 62.9718 277.097 61.7562 278.31 60.8067C277.2 61.7541 276.296 62.9204 275.654 64.2333C275.013 65.5462 274.646 66.9777 274.578 68.4387C274.51 69.8998 274.742 71.3593 275.259 72.7267C275.776 74.094 276.568 75.34 277.585 76.3871C276.54 75.4317 275.716 74.2588 275.17 72.9504C274.624 71.642 274.369 70.2295 274.423 68.8118V68.8191ZM290.11 61.0835L290.059 61.1418C289.09 60.3484 287.973 59.7566 286.774 59.4009C287.982 59.7442 289.114 60.3152 290.11 61.0835Z" fill="#D9C179"/>
<path d="M298.755 77.5671V69.4236H310.324V68.0324H298.755V60.0637H311.622V58.6725H297.254V78.9511H311.76V77.5671H298.755Z" fill="#D9C179"/>
<path d="M299.459 76.8606V70.1229H311.027V67.3259H299.459V60.7703H312.318V57.9732H296.558V79.6577H312.47V76.8606H299.459ZM297.958 59.379H298.088V78.2591H297.987L297.958 59.379Z" fill="#D9C179"/>
<path d="M326.374 70.2905C329.775 69.8243 332.285 67.8867 332.285 64.4633V64.405C332.285 61.0107 329.427 58.6361 325.076 58.6361H316.59V78.9147H318.099V70.5454H324.699L331.132 78.9511H333.039L326.374 70.2905ZM318.113 69.1979V60.0637H325.003C328.666 60.0637 330.805 61.7755 330.805 64.4997V64.5507C330.805 67.4643 328.289 69.1906 324.916 69.1906L318.113 69.1979Z" fill="#D9C179"/>
<path d="M327.643 70.7712C331.023 69.9408 332.996 67.6537 332.996 64.4414C332.996 60.6319 329.746 57.9732 325.09 57.9732H315.908V79.6577H318.809V71.2519H324.372L330.805 79.6577H334.475L327.643 70.7712ZM317.41 78.2519H317.308V59.3718H317.41V78.2519ZM331.603 64.4997C331.624 65.1106 331.52 65.7194 331.3 66.289C331.079 66.8587 330.746 67.3775 330.319 67.8139C331.099 66.9085 331.519 65.7472 331.502 64.5507V64.4997C331.526 63.7441 331.364 62.9942 331.03 62.3168C330.696 61.6394 330.2 61.0556 329.587 60.6173C330.218 61.045 330.733 61.624 331.085 62.3019C331.437 62.9798 331.615 63.7352 331.603 64.4997ZM318.809 60.7703H325.003C328.245 60.7703 330.08 62.1251 330.08 64.4997V64.5507C330.08 66.9471 328.042 68.484 324.894 68.484H318.788L318.809 60.7703ZM325.192 69.8826L331.625 78.2519H331.494L325.09 69.9263L325.192 69.8826Z" fill="#D9C179"/>
<path d="M101.901 67.8649H0V70.6765H101.901V67.8649Z" fill="#D9C179"/>
<path d="M443.832 67.8649H341.931V70.6765H443.832V67.8649Z" fill="#D9C179"/>
<path d="M247.087 25.1735C247.099 31.1679 245.081 36.9882 241.364 41.679C239.053 43.1417 236.599 44.3621 234.039 45.321C228.973 46.4069 223.786 46.8159 218.612 46.5374C212.005 46.0858 206.464 43.6238 201.206 40.3751C198.911 38.2196 196.954 35.7268 195.404 32.9819L195.353 32.9018V32.8653C194.602 30.3635 194.221 27.7646 194.221 25.1516C194.211 19.5794 195.955 14.1465 199.204 9.62943C199.443 9.37144 199.697 9.1282 199.966 8.90104L200.901 8.26733L201.38 7.93955C202.36 7.38659 203.375 6.89991 204.419 6.48275C207.946 5.39695 211.609 4.8182 215.298 4.76373C217.698 5.05035 220.059 5.60995 222.333 6.43177C229.187 8.90104 234.735 13.7813 241.024 17.0154C241.128 17.0983 241.239 17.1715 241.357 17.2339C243.134 18.2682 244.911 19.288 246.688 20.3078C246.973 21.9134 247.107 23.5426 247.087 25.1735Z" fill="#171717"/>
<path d="M247.087 25.1735C247.098 30.6243 245.428 35.9449 242.307 40.4043C241.754 41.2116 241.034 41.8898 240.197 42.3928L239.994 42.5093C236.576 44.467 232.803 45.72 228.897 46.195C225.489 46.6518 222.044 46.7738 218.613 46.5592C214.307 46.2364 210.104 45.084 206.232 43.1649C201.699 40.9816 197.931 37.4692 195.425 33.0912L195.382 33.0037L195.331 32.9236V32.8872C194.58 30.3854 194.199 27.7865 194.2 25.1735C194.19 19.7689 195.83 14.4912 198.9 10.0519C199.192 9.6357 199.544 9.26508 199.944 8.95203L200.88 8.31832L201.358 7.99054C202.231 7.50016 203.135 7.06707 204.063 6.69399C204.288 6.5993 204.52 6.51918 204.789 6.44634C208.005 5.49143 211.33 4.95531 214.682 4.85115C215.057 4.84129 215.433 4.86077 215.806 4.90942C218.014 5.21136 220.185 5.74604 222.282 6.50461C229.136 8.97388 234.685 13.8542 240.973 17.0882C241.077 17.1712 241.189 17.2443 241.306 17.3068C243.083 18.3411 244.86 19.3608 246.637 20.3806C246.935 21.9607 247.086 23.5653 247.087 25.1735Z" fill="#D9C179"/>
<path d="M224.611 26.2224C224.662 32.5335 223.32 38.7777 220.68 44.5051C217.973 38.797 216.599 32.5442 216.661 26.2224C216.597 19.9236 217.971 13.6939 220.68 8.01239C223.322 13.7133 224.665 19.9343 224.611 26.2224Z" fill="#171717"/>
<path d="M224.168 19.5211C226.119 19.5211 227.7 17.9329 227.7 15.9738C227.7 14.0147 226.119 12.4265 224.168 12.4265C222.217 12.4265 220.636 14.0147 220.636 15.9738C220.636 17.9329 222.217 19.5211 224.168 19.5211Z" fill="#D3AF7F"/>
<path d="M392.091 25.1735C392.082 31.1686 394.102 36.9889 397.821 41.679C400.13 43.1402 402.582 44.3605 405.139 45.321C410.208 46.4066 415.397 46.8157 420.573 46.5374C427.18 46.0858 432.714 43.6238 437.979 40.3751C440.272 38.2176 442.228 35.7252 443.781 32.9819L443.832 32.9018C443.832 32.8896 443.832 32.8775 443.832 32.8653C445.013 28.9561 445.28 24.8262 444.613 20.7964C443.946 16.7666 442.364 12.9454 439.988 9.62943C439.749 9.36953 439.492 9.12618 439.22 8.90104L438.291 8.26733L437.805 7.93955C436.826 7.3852 435.811 6.89847 434.766 6.48275C431.239 5.39628 427.576 4.81751 423.887 4.76373C421.487 5.04942 419.126 5.60904 416.852 6.43177C409.998 8.90104 404.45 13.7813 398.162 17.0154C398.057 17.0983 397.946 17.1715 397.828 17.2339L392.526 20.3952C392.234 21.971 392.088 23.5706 392.091 25.1735Z" fill="#171717"/>
<path d="M392.091 25.1735C392.082 31.1686 394.102 36.9889 397.821 41.679C400.13 43.1402 402.582 44.3605 405.139 45.321C410.208 46.4066 415.397 46.8157 420.573 46.5374C427.18 46.0858 432.714 43.6238 437.979 40.3751C440.272 38.2176 442.228 35.7252 443.781 32.9819L443.832 32.9018C443.832 32.8896 443.832 32.8775 443.832 32.8653C445.013 28.9561 445.28 24.8262 444.613 20.7964C443.946 16.7666 442.364 12.9454 439.988 9.62943C439.749 9.36953 439.492 9.12618 439.22 8.90104L438.291 8.26733L437.805 7.93955C436.826 7.3852 435.811 6.89847 434.766 6.48275C431.239 5.39628 427.576 4.81751 423.887 4.76373C421.487 5.04942 419.126 5.60904 416.852 6.43177C409.998 8.90104 404.45 13.7813 398.162 17.0154C398.057 17.0983 397.946 17.1715 397.828 17.2339L392.526 20.3952C392.234 21.971 392.088 23.5706 392.091 25.1735Z" fill="#D9C179"/>
<path d="M414.567 26.2224C414.508 32.5398 415.846 38.7917 418.484 44.527C421.198 38.8134 422.578 32.5527 422.516 26.2224C422.577 19.9225 421.197 13.6927 418.484 8.01239C415.847 13.7145 414.509 19.9355 414.567 26.2224Z" fill="#171717"/>
<path d="M422.516 19.5211C424.467 19.5211 426.049 17.9329 426.049 15.9738C426.049 14.0147 424.467 12.4265 422.516 12.4265C420.566 12.4265 418.984 14.0147 418.984 15.9738C418.984 17.9329 420.566 19.5211 422.516 19.5211Z" fill="#D3AF7F"/>
</g>
<defs>
<clipPath id="clip0_331_2">
<rect width="445" height="80" fill="white"/>
</clipPath>
</defs>
</svg>
